HIERARCHY
ROOT Hips
{
	OFFSET -14.64140 90.27770 -84.91600
	CHANNELS 6 Xposition Yposition Zposition Zrotation Xrotation Yrotation
	JOINT Spine
	{
		OFFSET 0.00000 13.20850 -1.60436
		CHANNELS 3 Zrotation Xrotation Yrotation
		JOINT Spine1
		{
			OFFSET 0.00000 8.61716 0.00000
			CHANNELS 3 Zrotation Xrotation Yrotation
			JOINT Spine2
			{
				OFFSET 0.00000 8.61717 0.00000
				CHANNELS 3 Zrotation Xrotation Yrotation
				JOINT Spine3
				{
					OFFSET 0.00000 8.61717 0.00000
					CHANNELS 3 Zrotation Xrotation Yrotation
					JOINT Neck
					{
						OFFSET 0.00000 11.07920 1.10792
						CHANNELS 3 Zrotation Xrotation Yrotation
						JOINT Neck1
						{
							OFFSET 0.00000 7.08032 0.00000
							CHANNELS 3 Zrotation Xrotation Yrotation
							JOINT Head
							{
								OFFSET 0.00000 7.08031 0.00000
								CHANNELS 3 Zrotation Xrotation Yrotation
								End site
								{
									OFFSET 0.00000 0.00000 0.00000
								}
							}
						}
					}
					JOINT RightShoulder
					{
						OFFSET -0.01000 7.91373 5.19711
						CHANNELS 3 Zrotation Xrotation Yrotation
						JOINT RightArm
						{
							OFFSET -18.41580 0.00000 0.00000
							CHANNELS 3 Zrotation Xrotation Yrotation
							JOINT RightForeArm
							{
								OFFSET -29.11090 0.00000 0.00000
								CHANNELS 3 Zrotation Xrotation Yrotation
								JOINT RightHand
								{
									OFFSET -24.65040 0.00000 0.00000
									CHANNELS 3 Zrotation Xrotation Yrotation
									JOINT RightHandThumb1
									{
										OFFSET -5.35114 -0.85590 3.97906
										CHANNELS 3 Zrotation Xrotation Yrotation
										JOINT RightHandThumb2
										{
											OFFSET -4.52789 0.00000 0.00000
											CHANNELS 3 Zrotation Xrotation Yrotation
											JOINT RightHandThumb3
											{
												OFFSET -2.46976 0.00000 0.00000
												CHANNELS 3 Zrotation Xrotation Yrotation
												End site
												{
													OFFSET 0.00000 0.00000 0.00000
												}
											}
										}
									}
									JOINT RightHandIndex1
									{
										OFFSET -14.26970 0.00000 2.88139
										CHANNELS 3 Zrotation Xrotation Yrotation
										JOINT RightHandIndex2
										{
											OFFSET -5.48836 0.00000 0.00000
											CHANNELS 3 Zrotation Xrotation Yrotation
											JOINT RightHandIndex3
											{
												OFFSET -3.01859 0.00000 0.00000
												CHANNELS 3 Zrotation Xrotation Yrotation
												End site
												{
													OFFSET 0.00000 0.00000 0.00000
												}
											}
										}
									}
									JOINT RightHandMiddle1
									{
										OFFSET -14.26970 0.00000 -0.09147
										CHANNELS 3 Zrotation Xrotation Yrotation
										JOINT RightHandMiddle2
										{
											OFFSET -6.17441 0.00000 0.00000
											CHANNELS 3 Zrotation Xrotation Yrotation
											JOINT RightHandMiddle3
											{
												OFFSET -3.56743 0.00000 0.00000
												CHANNELS 3 Zrotation Xrotation Yrotation
												End site
												{
													OFFSET 0.00000 0.00000 0.00000
												}
											}
										}
									}
									JOINT RightHandRing1
									{
										OFFSET -12.69180 0.00000 -3.06433
										CHANNELS 3 Zrotation Xrotation Yrotation
										JOINT RightHandRing2
										{
											OFFSET -5.62556 0.00000 0.00000
											CHANNELS 3 Zrotation Xrotation Yrotation
											JOINT RightHandRing3
											{
												OFFSET -3.56744 0.00000 0.00000
												CHANNELS 3 Zrotation Xrotation Yrotation
												End site
												{
													OFFSET 0.00000 0.00000 0.00000
												}
											}
										}
									}
									JOINT RightHandPinky1
									{
										OFFSET -11.11390 0.00000 -6.03719
										CHANNELS 3 Zrotation Xrotation Yrotation
										JOINT RightHandPinky2
										{
											OFFSET -4.52789 0.00000 0.00000
											CHANNELS 3 Zrotation Xrotation Yrotation
											JOINT RightHandPinky3
											{
												OFFSET -2.46976 0.00000 0.00000
												CHANNELS 3 Zrotation Xrotation Yrotation
												End site
												{
													OFFSET 0.00000 0.00000 0.00000
												}
											}
										}
									}
								}
							}
						}
					}
					JOINT LeftShoulder
					{
						OFFSET 0.01000 7.91373 5.19711
						CHANNELS 3 Zrotation Xrotation Yrotation
						JOINT LeftArm
						{
							OFFSET 18.41580 0.00000 0.00000
							CHANNELS 3 Zrotation Xrotation Yrotation
							JOINT LeftForeArm
							{
								OFFSET 29.11090 0.00000 0.00000
								CHANNELS 3 Zrotation Xrotation Yrotation
								JOINT LeftHand
								{
									OFFSET 24.65040 0.00000 0.00000
									CHANNELS 3 Zrotation Xrotation Yrotation
									JOINT LeftHandThumb1
									{
										OFFSET 5.35114 -0.85590 3.97906
										CHANNELS 3 Zrotation Xrotation Yrotation
										JOINT LeftHandThumb2
										{
											OFFSET 4.52789 0.00000 0.00000
											CHANNELS 3 Zrotation Xrotation Yrotation
											JOINT LeftHandThumb3
											{
												OFFSET 2.46977 0.00000 0.00000
												CHANNELS 3 Zrotation Xrotation Yrotation
												End site
												{
													OFFSET 0.00000 0.00000 0.00000
												}
											}
										}
									}
									JOINT LeftHandIndex1
									{
										OFFSET 14.26970 0.00000 2.88139
										CHANNELS 3 Zrotation Xrotation Yrotation
										JOINT LeftHandIndex2
										{
											OFFSET 5.48836 0.00000 0.00000
											CHANNELS 3 Zrotation Xrotation Yrotation
											JOINT LeftHandIndex3
											{
												OFFSET 3.01859 0.00000 0.00000
												CHANNELS 3 Zrotation Xrotation Yrotation
												End site
												{
													OFFSET 0.00000 0.00000 0.00000
												}
											}
										}
									}
									JOINT LeftHandMiddle1
									{
										OFFSET 14.26970 0.00000 -0.09147
										CHANNELS 3 Zrotation Xrotation Yrotation
										JOINT LeftHandMiddle2
										{
											OFFSET 6.17440 0.00000 0.00000
											CHANNELS 3 Zrotation Xrotation Yrotation
											JOINT LeftHandMiddle3
											{
												OFFSET 3.56744 0.00000 0.00000
												CHANNELS 3 Zrotation Xrotation Yrotation
												End site
												{
													OFFSET 0.00000 0.00000 0.00000
												}
											}
										}
									}
									JOINT LeftHandRing1
									{
										OFFSET 12.69180 0.00000 -3.06433
										CHANNELS 3 Zrotation Xrotation Yrotation
										JOINT LeftHandRing2
										{
											OFFSET 5.62556 0.00000 0.00000
											CHANNELS 3 Zrotation Xrotation Yrotation
											JOINT LeftHandRing3
											{
												OFFSET 3.56744 0.00000 0.00000
												CHANNELS 3 Zrotation Xrotation Yrotation
												End site
												{
													OFFSET 0.00000 0.00000 0.00000
												}
											}
										}
									}
									JOINT LeftHandPinky1
									{
										OFFSET 11.11390 0.00000 -6.03719
										CHANNELS 3 Zrotation Xrotation Yrotation
										JOINT LeftHandPinky2
										{
											OFFSET 4.52789 0.00000 0.00000
											CHANNELS 3 Zrotation Xrotation Yrotation
											JOINT LeftHandPinky3
											{
												OFFSET 2.46976 0.00000 0.00000
												CHANNELS 3 Zrotation Xrotation Yrotation
												End site
												{
													OFFSET 0.00000 0.00000 0.00000
												}
											}
										}
									}
								}
							}
						}
					}
					JOINT pCube4
					{
						OFFSET 0.00000 10.91090 1.10792
						CHANNELS 3 Zrotation Xrotation Yrotation
						End site
						{
							OFFSET 0.00000 0.00000 0.00000
						}
					}
				}
			}
		}
	}
	JOINT RightUpLeg
	{
		OFFSET -9.98441 0.00000 0.00000
		CHANNELS 3 Zrotation Xrotation Yrotation
		JOINT RightLeg
		{
			OFFSET 0.00000 -42.11790 0.00000
			CHANNELS 3 Zrotation Xrotation Yrotation
			JOINT RightFoot
			{
				OFFSET 0.00000 -45.00020 -0.00001
				CHANNELS 3 Zrotation Xrotation Yrotation
				JOINT RightForeFoot
				{
					OFFSET 0.00000 -3.74820 0.00000
					CHANNELS 3 Zrotation Xrotation Yrotation
					JOINT RightToeBase
					{
						OFFSET 0.00000 0.06325 14.43120
						CHANNELS 3 Zrotation Xrotation Yrotation
						End site
						{
							OFFSET 0.00000 0.00000 0.00000
						}
					}
				}
			}
		}
	}
	JOINT LeftUpLeg
	{
		OFFSET 9.98441 0.00000 0.00000
		CHANNELS 3 Zrotation Xrotation Yrotation
		JOINT LeftLeg
		{
			OFFSET 0.00000 -42.11800 0.00000
			CHANNELS 3 Zrotation Xrotation Yrotation
			JOINT LeftFoot
			{
				OFFSET 0.00000 -45.00070 0.00000
				CHANNELS 3 Zrotation Xrotation Yrotation
				JOINT LeftForeFoot
				{
					OFFSET 0.00000 -3.74824 0.00000
					CHANNELS 3 Zrotation Xrotation Yrotation
					JOINT LeftToeBase
					{
						OFFSET 0.00000 0.06325 14.43110
						CHANNELS 3 Zrotation Xrotation Yrotation
						End site
						{
							OFFSET 0.00000 0.00000 0.00000
						}
					}
				}
			}
		}
	}
}
MOTION
Frames: 4
Frame Time: 0.050000
-0.007859742595151365 0.011596503474593988 0.03162402653694727 0.005470838170369405 0.032576466691865355 0.012419795167005532 -3.397990351506801 -0.5985123174173969 -0.8375346060133151 -0.9436889787862042 3.524119003644093 0.40467155795504184 -1.1562439728071103 -2.065342309986314 -1.5582030549251138 -0.2659159919829834 0.2568646669383991 -0.8331326161942209 -0.40459610990938233 12.111234531521736 0.9503936633801032 0.2572534449360223 0.23883801871688262 1.4009567130035683 0.03825277171441891 -14.34623381983902 0.09626129105706381 -3.3843430635025795 1.4679627281348833 -14.319942853766829 73.17768032282125 26.07235114038782 3.2948473657813966 35.33850502021332 6.592499241338431 87.20433297003414 23.2631644919364 -0.3591944980679283 -3.810485398329776 4.5496537872183005 -0.1660626325405335 -1.599083801702543 -0.02002558784752026 -0.002301442272970379 -56.25472877638413 0.037952217467197395 0.0020628578927479077 -56.22275248590664 -38.746814582441345 -0.03155988356826053 0.04985781142197956 0.03582691647234582 -0.028471397262453877 -0.004506742759710427 -0.037595651123684 -0.019711278864541232 -0.022157460472548858 -36.7309123320369 -0.013249537052488032 -0.03611753989235437 -0.013253608677429033 -0.007756370540584501 0.041140349497176876 -0.010777536927319276 0.0031676358395105408 -0.03904551165525577 -19.798776668813378 0.01076570453021283 -0.03506125950578873 0.015454233941274582 -0.015551196301202639 -0.03173349505923715 0.01775135851989318 0.04404377671030605 -0.03545933521392237 24.061912972379087 -0.03866296835883783 -0.0011306060406301134 28.85645941088788 -0.004472240900160369 0.01578928875778245 28.892890165549012 -0.009037807544966301 0.0038418708978125438 6.196894164135341 1.469023946570494 12.42682893633374 -73.58635987966731 25.021687154284752 -8.18008327903804 -92.66810495054803 9.482701055054003 -106.77831635453238 -20.297092511158883 -1.5961567226346611 0.7960557177189952 -0.45717111578354974 0.11038815155730078 -8.149577277285298 -0.029104459399246076 0.015675973378096095 44.56074311925175 -0.011587691965708167 -0.009941328201041355 44.52694534183366 12.439750169774728 0.0052034295854193465 0.04200451960368725 0.0025461940718939985 0.029863118320556565 -0.03230842229716659 -0.02188872069470312 -0.0006231184521406903 0.032691170150372574 11.062726629809326 0.010504883032140899 -0.017123363191485563 0.019315893523796365 -0.026101861686014263 0.02073285095917845 -0.010790736525510002 0.039293755706467266 0.009689160002319015 4.787991270218304 0.040994260275960516 -0.025067817489653036 0.03113647443802049 -0.009889546352053167 0.008386285406569154 -0.017523386086980824 -0.0010800967951708107 -0.03682451949593397 -5.612483543303326 -0.013966542171415177 0.004102803372993327 -6.741569054137799 0.009422803525454816 0.015212486061750071 -6.727936603956641 -0.010661725199333208 -0.04427794241634719 -0.046997791950124386 0.0458886428110246 0.026080031417575363 8.057777386642991 3.5083598146978425 -19.17324511675209 0.012587274260177738 10.415043211198771 0.0369010323350594 -5.64053156361709 -15.66179744072145 3.1932530961763357 0.019845805471603504 0.02787365561353692 -0.027224037428021233 0.001463319975689527 4.70461832744424 0.021585092177352303 12.461158152241405 -8.195064994621248 6.862363098600277 0.020536406328098132 46.38645355700438 0.009120183779344997 -4.316358203845972 -14.765903170350171 -3.803128397558343 -0.01756427495488534 0.016597780056986148 0.015973742234395537 -0.013083668001849215 -10.764241889634373 -0.022694157691178888 
-0.02128868044453376 0.010646212879896538 0.012659535094534864 0.01998690652371432 -0.021500433292444415 0.0427375707009294 -3.3612312661487045 -0.6673634691237256 -0.7882274402009539 -0.9556778488057863 3.606266381420797 0.3599388055239708 -1.168842615607526 -2.0460929888303907 -1.5043582839928658 -0.22563383716053573 0.31301773270168565 -0.8372363544288939 -0.34084401704130596 12.201292021479027 1.1619637028961005 0.26806672486408717 0.3483009705504471 1.7360823563076693 -0.09665393463862362 -14.089445569660866 0.1676826029917611 -3.3750259105357108 1.4247017460884643 -14.265029198918095 72.6684928531474 25.500830503177305 3.6987866616443696 36.10818486583119 5.435475853530671 90.82414138876835 22.238661711853272 -0.31152307426064574 -3.6743535552105544 4.478738375940879 -0.13365302522122288 -1.5524423901726887 0.04226416498551867 -0.017546360789027958 -56.18426088706354 0.01568484196979954 -0.005627347599800169 -56.27952509809536 -38.81583034506917 0.03426511183990328 0.006719767238950722 0.022714349956540425 -0.029307410998932647 -0.0027474886551106096 0.022428733705397746 0.03209221479376505 0.030967269674305867 -36.66746791126584 0.006861947991693306 -0.02349266254832014 -0.010923731493497553 0.019113840399732754 -0.048903777694357074 0.025299495521223913 -0.0012445380006294983 -0.0072549731193990215 -19.727365274391836 -0.026654656640880056 -0.01945350493565164 0.005044268009988321 0.029043501149670508 -0.0382332238423858 0.0417242430852565 0.02305177007344447 -0.0014267073634520832 24.084118720478102 0.002700696853185418 -0.0394182468242524 28.82766086530312 0.03650893807738596 0.03212918971007888 28.857622371175893 -0.04291826836161587 0.03518710850528114 6.016125716456096 1.409074092501497 12.365950520861677 -73.4363804624106 25.42985756690827 -8.047554671651097 -90.94341133193122 8.871554291805827 -105.62820906273615 -19.108918319747502 -0.7865510592962105 0.19661539828108635 -0.49849498396602887 0.03029526058959469 -8.14093577825269 -0.02467453725276458 0.03967539390222614 44.52866194213682 0.036176982008231155 -0.022927525600863245 44.527905650055295 12.477462050572473 0.035683985127221096 -0.04828588410532646 0.013626689898506808 -0.009888913724562251 -0.027512904643518656 -0.04274351353939386 -0.047039507984997515 0.008388535458491648 11.082070598161426 -0.018615385691252036 0.03813727023878213 0.01750459123015429 -0.04973826068273314 0.0394410331793928 0.04919653060361668 -0.041225515726431565 0.025549680230630086 4.772054229382777 -0.00391269798308429 0.008157660731464036 -0.03509231627938793 0.02039446338868565 0.004290234017183503 0.03150149141057528 -0.007145636497325999 -0.0261138764448207 -5.624946937366316 -0.025923600440314686 0.009386884744040813 -6.716196156337616 0.043741152932606005 0.01842337784272052 -6.737909231635676 0.029416940510521968 -0.01515704904035257 0.0015651754904213555 -0.004479615813481448 0.03634403165459806 8.039335959503662 3.5090461509623094 -19.189984451933565 0.020616239316929314 10.428177914884326 0.02322592642345222 -5.628130981222082 -15.636539230514792 3.239156221297849 -0.015654479456800978 0.03944835234097833 0.01872726866859682 0.03133304515373373 4.648977188641372 -0.04498534492971981 12.479495090413513 -8.23567904314586 6.912184371600539 0.03427571051987119 46.401851780079575 0.003658457195869075 -4.316405961992118 -14.702984488357126 -3.791002784306574 0.021572731773635546 0.02955431124306745 -0.0001582842984385838 0.04856372029907292 -10.780970525104065 -0.03669847626466674 
0.025443866987990938 0.047478499473311744 0.015090140598376276 -0.0006167942678948762 0.04736837087680356 -0.013487981185358917 -3.249579933268402 -0.5907142444705689 -0.8260785590491053 -0.9588351836496924 3.5434614152948467 0.4057802549071952 -1.2115737320730329 -2.0189553968996505 -1.4908524477535952 -0.2028890143864183 0.35561468507882615 -0.8310950330839237 -0.4448929155735852 12.355798119081813 1.2711420945467475 0.18912921268446298 0.44448098770832567 1.9631757658252793 -0.2114026234408072 -13.905900940886564 0.23190828872862335 -3.3450359166346018 1.4058080958375714 -14.399709478935227 72.29836628450174 25.27208717771342 3.8184929961045633 35.6533944747632 4.530486422560275 92.94098561515804 21.265319114494783 -0.3068892858766274 -3.7429769252266234 4.548460673488643 -0.09668756155916593 -1.5940305159301598 -0.003403193985875167 -0.0008781933868363976 -56.18572944677488 0.003685771426232866 0.028674344750323724 -56.24393233038038 -38.78402908492403 -0.0267550398564985 -0.0397000656247889 -0.0006417223018750335 0.012343418606060677 0.014856401177868121 -0.004277395205254017 -0.0107848468019644 0.02728175983937693 -36.71877355783248 0.004665409360598789 -0.029629977764420813 0.009348466245014118 0.0230942967645637 -0.03521019143777843 0.026286474506388657 0.025441073882489902 -0.0019786405406768464 -19.773929178104645 0.0347482585136391 -0.011674336928667223 0.047307631646309724 0.038054611826429253 0.006655282607381612 -0.003507421827979366 -0.023069022879474585 0.031074062120349303 24.08673416659786 0.024936325653341956 -0.01015742869358642 28.881260414392013 0.020079892451563778 -0.03875773338293835 28.885355357905766 0.006204399270501475 -0.024247131393456405 5.97481044327949 1.4060154178387145 12.447650750959152 -73.03644706468171 25.59485471691767 -7.903870836797568 -86.47570574190904 8.979571149522613 -102.99717408424611 -17.448203808846564 -0.17016221738487722 -0.23194456526186644 -0.5004129333231028 0.029871802365679337 -8.143825416807555 0.010441235532881588 0.047710614714540495 44.56031704941828 -0.011736300709472808 0.011410496987747612 44.6053313771757 12.449848004459254 0.022469335840637126 0.00518498628113507 -0.03547944101765782 0.024588706595729818 -0.025889478683454006 0.019021715160162395 0.004760854302258961 -0.02344331976342886 11.11673359474593 0.043128284573788235 -0.025610253976898922 -0.04780206432012821 -0.035360165745566774 0.002432665499430598 -0.018404375698168326 -0.0010811713249999652 0.026492762191908627 4.819220817613838 -0.03802994991924757 -0.005246994483510001 -0.03509363624905594 -0.002955574851227349 -0.0010886054413404764 0.0369463073180585 -0.015432807103030435 -0.01636083882925431 -5.630840950289125 -0.0020293439436152973 0.04814391639833206 -6.686795787257157 0.020942420693629796 -0.007313208429253963 -6.735367524404093 0.03189475442863711 -0.04776162278825842 -0.014074287986473533 0.022308609212558072 -0.021197951456549787 8.078389016493247 3.5142605371750473 -19.229738084656965 0.021556392553152167 10.393254708851902 0.02761908817106059 -5.596410081051932 -15.680214102466602 3.1924288627766573 -0.04737623296136543 -0.030976022609034943 0.021331468938577552 0.014203511764180797 4.6923229670571684 -0.009853314674422405 12.495451284715395 -8.239194883526839 6.844690137747817 -0.018410575482792207 46.35251029526701 0.0453568249852755 -4.353108264107665 -14.761072842985207 -3.8086906320628686 0.04646686663738269 -0.04826749773828216 0.007481466870963467 0.019479090539439404 -10.727741607382766 -0.011601281980806073 
0.017561997676404935 0.03320553106702563 -0.0003062250669960801 -0.04773216284478827 -0.049998234790891244 -0.007759058925613957 -3.2580825023118387 -0.5877412125077117 -0.7961809815281472 -0.9210368452169175 3.5614018448074583 0.3263253442968013 -1.164637869998298 -2.020305870103975 -1.4216978806057317 -0.08179919901307459 0.34628530315730505 -0.9111395728880769 -0.4503058263921064 12.468499241094376 1.3893606169540222 0.1873619039305281 0.4724555966051393 2.098984453534979 -0.16945707993940762 -13.889553835738994 0.19904058642840727 -3.4388792241814694 1.3773723867374905 -14.548118757162108 71.99499005924437 25.64551897417289 3.4914092068667237 33.704425584124046 4.170082779050695 92.87618698740249 20.497461165589744 -0.35192858691028706 -3.8714572039598436 4.57273741643819 -0.0850537609147623 -1.5980968049770314 0.0030085067192580466 -0.04154639683229359 -56.21100162276413 -0.003038975742548455 -0.031836971400038404 -56.23753905520964 -38.791231773727084 0.023562624721920722 -0.005525111582634999 -0.00022018510944278355 -0.013575639527751806 0.046534140114897836 0.024390268077873437 0.0056894923358794805 -0.0037587908723129095 -36.74207992690099 0.024086817809482925 0.03296828735286297 -0.004477021683909731 -0.043295981043377146 -0.027610237359848643 0.011714706913412675 0.04556725479605553 -0.009946503619342963 -19.79981716181463 -0.005246800770701773 -0.0484708041400538 0.00710981471606974 0.03346984428883391 -0.036516371947735916 -0.036360014615274314 -0.02034907330014632 -0.022762351886394833 24.027321430155492 -0.03157926405158355 0.013463711249368076 28.911434084564046 0.009092723958890984 -0.003513655250323669 28.86114964177923 0.009318809225739074 -0.015093475953095304 5.941970286209568 1.362734590259329 12.684242616089685 -72.47196067642689 25.6482357757467 -7.6665203642431905 -77.66838939986094 9.824780370613125 -97.52315645276077 -15.573326320267196 0.04095825636744338 -0.15297274530956173 -0.47669470553528287 0.10167123864328109 -8.16418409187066 -0.017074568228388338 0.016606930453814936 44.55461618715829 -0.001590799686754423 0.023979520809087156 44.53635388432121 12.43360996413029 0.0013110687956640842 -0.03913860698858268 -0.011283001269876504 -0.03799804134044966 0.0034763293277352532 0.022257324678311593 -0.014960454116899455 0.0457728830499077 11.13029777947092 -0.005425474241286849 0.04861749177122565 0.01510448935532378 -0.03154448252492971 -0.011056437063868808 -0.010915161009804927 0.010931477624301371 -0.0015645438538069694 4.743098867172274 -0.0073656303130178865 -0.0355709365888732 -0.04582898332410784 -0.008644331280267403 -0.030992431230390055 0.03397067505664563 0.020867026869939846 -0.001844658563213339 -5.597054914744177 -0.019232444345246062 -0.04771045196527503 -6.745798435603832 0.01963376475864332 0.00846132118685344 -6.751775502026661 0.007924349854170199 -0.03291097638279421 -0.04778123620311182 0.018262342185247544 0.03679164886173334 8.092724872718447 3.4835671615361163 -19.171442089892476 -0.03619450152558177 10.412021968402167 0.019022552748308063 -5.624756460762431 -15.678876511250644 3.144143425652918 -0.0011065247404640098 -0.010940632341872019 0.0027562828955878037 -0.0035701388388667305 4.718933960963387 -0.030803754120267514 12.46049090350836 -8.236177615860946 6.8849866664409785 -0.03316658185574856 46.41462284760676 0.0332943631644464 -4.364727426131249 -14.741193394053004 -3.8465779357995205 0.027745555105869752 0.04102831153704033 -0.031005926689685645 -0.029872138338114935 -10.751825516389134 0.001187039280241767 
